<svg width="96" height="29" viewBox="0 0 96 29" xmlns="http://www.w3.org/2000/svg">
<path d="M37.5039 23.4688C42.0625 23.4688 45.168 20.6445 45.3555 16.6602L45.3672 16.4141H40.6094L40.5859 16.5898C40.3633 18.2656 39.2148 19.4141 37.5156 19.4141C35.4297 19.4141 34.1641 17.5742 34.1641 14.5391V14.5156C34.1641 11.4922 35.4297 9.67578 37.5039 9.67578C39.2148 9.67578 40.4336 10.8828 40.5859 12.5234L40.5977 12.6523H45.3555L45.3438 12.3828C45.1797 8.49219 41.9688 5.62109 37.5039 5.62109C32.2773 5.62109 29.1016 8.99609 29.1016 14.5273V14.5508C29.1016 20.082 32.2891 23.4688 37.5039 23.4688ZM55.1823 23.4688C59.7409 23.4688 62.8464 20.6445 63.0339 16.6602L63.0456 16.4141H58.2878L58.2644 16.5898C58.0417 18.2656 56.8933 19.4141 55.1941 19.4141C53.1081 19.4141 51.8425 17.5742 51.8425 14.5391V14.5156C51.8425 11.4922 53.1081 9.67578 55.1823 9.67578C56.8933 9.67578 58.112 10.8828 58.2644 12.5234L58.2761 12.6523H63.0339L63.0222 12.3828C62.8581 8.49219 59.6472 5.62109 55.1823 5.62109C49.9558 5.62109 46.78 8.99609 46.78 14.5273V14.5508C46.78 20.082 49.9675 23.4688 55.1823 23.4688ZM71.853 23.4688C76.517 23.4688 79.2358 21.207 79.2358 17.6562V17.6445C79.2358 14.8203 77.5248 13.3672 73.892 12.6875L72.1928 12.3711C70.5053 12.0547 69.7788 11.6562 69.7788 10.8125V10.8008C69.7788 10.0273 70.4819 9.42969 71.853 9.42969C73.2123 9.42969 74.1498 10.0156 74.3139 10.9414L74.3373 11.0703H78.8959L78.8842 10.9414C78.603 7.80078 76.3178 5.62109 71.7944 5.62109C67.7866 5.62109 64.8569 7.80078 64.8569 11.2695V11.2812C64.8569 13.9766 66.4272 15.6992 70.06 16.3789L71.7592 16.6953C73.6342 17.0469 74.3139 17.3281 74.3139 18.1367V18.1484C74.3139 19.0273 73.3998 19.6602 71.9116 19.6602C70.3998 19.6602 69.4155 19.0039 69.31 18.1602L69.2983 18.0664H64.5756L64.5873 18.3008C64.7514 21.5586 67.4702 23.4688 71.853 23.4688ZM81.6916 23H93.6213V19.0625H86.6603V16.332H93.1877V12.7695H86.6603V10.0273H93.6213V6.08984H81.6916V23Z" fill="#ffffff"/>
<path fill-rule="evenodd" clip-rule="evenodd" d="M14.2415 4L20.1406 9.89904V18.2415L14.8887 23.4934L12.4789 18.6738L11.5335 16.4574L15.3835 15.7446L6.52136 8.26334V20.3409L9.52784 17.4761L12.2817 22.8859H12.2818L12.9092 24.1406H5.89904L0 18.2415V9.89904L5.89904 4H14.2415Z" fill="#ffffff"/>
</svg>
