<svg xmlns="http://www.w3.org/2000/svg" x="0px" y="0px"
width="20" height="20"
viewBox="0 0 172 172"
style=" fill:#ffffff;"><g transform="translate(2.408,2.408) scale(0.972,0.972)"><g fill="none" fill-rule="nonzero" stroke="none" stroke-width="none" stroke-linecap="butt" stroke-linejoin="none" stroke-miterlimit="10" stroke-dasharray="" stroke-dashoffset="0" font-family="none" font-weight="none" font-size="none" text-anchor="none" style="mix-blend-mode: normal"><g fill="#ffffff" stroke="#ffffff" stroke-width="5" stroke-linejoin="round"><path d="M125.41667,73.45833c0,11.72881 -3.96669,22.53529 -10.56803,31.24919l33.55176,33.55876c1.87223,1.79752 2.62641,4.46675 1.97168,6.97825c-0.65472,2.5115 -2.61605,4.47282 -5.12755,5.12755c-2.5115,0.65472 -5.18073,-0.09946 -6.97825,-1.97168l-33.55876,-33.55176c-8.71389,6.60135 -19.52037,10.56803 -31.24919,10.56803c-28.61092,0 -51.95833,-23.34743 -51.95833,-51.95833c0,-28.6109 23.34741,-51.95833 51.95833,-51.95833c28.61092,0 51.95833,23.34743 51.95833,51.95833zM35.83333,73.45833c0,20.86461 16.76038,37.625 37.625,37.625c10.02513,0 19.07804,-3.89722 25.8042,-10.2321c0.44585,-0.61586 0.98684,-1.15685 1.6027,-1.6027c6.32683,-6.72472 10.2181,-15.77224 10.2181,-25.7902c0,-20.86461 -16.76038,-37.625 -37.625,-37.625c-20.86462,0 -37.625,16.76039 -37.625,37.625z"></path></g><path d="M0,172v-172h172v172z" fill="none" stroke="none" stroke-width="1" stroke-linejoin="miter"></path><g fill="#ffffff" stroke="none" stroke-width="1" stroke-linejoin="miter"><path d="M73.45833,21.5c-28.61092,0 -51.95833,23.34743 -51.95833,51.95833c0,28.6109 23.34741,51.95833 51.95833,51.95833c11.72882,0 22.53529,-3.96669 31.24919,-10.56803l33.55876,33.55176c1.79752,1.87223 4.46675,2.62641 6.97825,1.97168c2.5115,-0.65472 4.47282,-2.61605 5.12755,-5.12755c0.65472,-2.5115 -0.09946,-5.18073 -1.97168,-6.97825l-33.55176,-33.55876c6.60135,-8.7139 10.56803,-19.52038 10.56803,-31.24919c0,-28.6109 -23.34741,-51.95833 -51.95833,-51.95833zM73.45833,35.83333c20.86462,0 37.625,16.76039 37.625,37.625c0,10.01796 -3.89127,19.06549 -10.2181,25.7902c-0.61586,0.44585 -1.15686,0.98684 -1.6027,1.6027c-6.72616,6.33487 -15.77907,10.2321 -25.8042,10.2321c-20.86462,0 -37.625,-16.76039 -37.625,-37.625c0,-20.86461 16.76038,-37.625 37.625,-37.625z"></path></g><path d="" fill="none" stroke="none" stroke-width="1" stroke-linejoin="miter"></path></g></g></svg>